<?xml version="1.0" encoding="utf-8"?>
<svg version="1.1" id="Layer_1" xmlns="http://www.w3.org/2000/svg" xmlns:xlink="http://www.w3.org/1999/xlink" x="0px" y="0px"
	 viewBox="0 0 400 106" style="enable-background:new 0 0 400 106;" xml:space="preserve">
<style type="text/css">
	.st0{fill:#FFFFFF;}
	.st1{fill:#EE483E;}
	.st2{fill:#231F20;}
</style>
<g>
	<g>
		<rect x="21.4" y="3.6" class="st0" width="375.4" height="80.1"/>
		<path class="st1" d="M398,84.9H20.3V2.5H398V84.9z M22.6,82.6h373.1V4.7H22.6V82.6z"/>
	</g>
	<g>
		<rect x="6.4" y="19.6" class="st0" width="375.4" height="80.1"/>
		<path class="st2" d="M385.3,103.2H3v-87h382.3V103.2z M9.9,96.3h368.6V23.1H9.9V96.3z"/>
	</g>
	<g>
		<path class="st2" d="M51.7,71.1h-4.6V50.5h8l2.6,8c0.4,1.3,1.1,3.9,1.7,6.4H60c0.5-2.4,1.2-5.1,1.7-6.5l2.6-7.8h7.4v20.6h-4.9
			v-8.6c0-2.5,0.1-5.5,0.2-8h-0.5c-0.7,2.7-1.5,5.8-2.6,8.9L61.5,70h-4.6l-2.3-6.8c-1-3.2-1.8-6.1-2.5-8.7h-0.5c0,2.5,0,5.4,0,8
			V71.1z"/>
		<path class="st2" d="M75.3,71.1V50.5h4.9v20.6H75.3z"/>
		<path class="st2" d="M82.9,60.7c0-6.8,4-10.7,10.2-10.7c5.4,0,8.7,2.9,9.3,8l-4.7,0.9c-0.5-3-1.9-4.6-4.7-4.6
			c-3.6,0-5.2,2.8-5.2,6.4c0,4.1,1.5,6.6,5.1,6.6c3,0,4.3-1.6,4.9-4.7l4.7,0.8c-0.6,5.2-4,8.1-9.5,8.1
			C86.6,71.5,82.9,67.5,82.9,60.7z"/>
		<path class="st2" d="M118.7,71.1v-8h-8.6v8h-4.9V50.5h4.9v8.1h8.6v-8.1h4.9v20.6H118.7z"/>
		<path class="st2" d="M139.5,66.5h-8l-1.4,4.6h-5.1l7.2-20.6h6.8l7.2,20.6H141L139.5,66.5z M132.7,62.9h5.7l-0.8-2.5
			c-0.6-1.9-1.1-3.8-1.6-5.6h-0.8c-0.5,1.9-1.1,3.8-1.7,5.6L132.7,62.9z"/>
		<path class="st2" d="M147.7,50.5h15.6v4.3h-10.6v4h9.8v3.8h-9.8v4.2h10.6v4.3h-15.6V50.5z"/>
		<path class="st2" d="M171.4,66.6h8.8v4.4h-13.8V50.5h4.9V66.6z"/>
		<path class="st2" d="M193.5,71.1H189V50.5h8l2.6,8c0.4,1.3,1.1,3.9,1.7,6.4h0.6c0.5-2.4,1.2-5.1,1.7-6.5l2.6-7.8h7.4v20.6h-4.9
			v-8.6c0-2.5,0.1-5.5,0.2-8h-0.5c-0.7,2.7-1.5,5.8-2.6,8.9l-2.4,6.6h-4.6l-2.3-6.8c-1-3.2-1.8-6.1-2.5-8.7h-0.5c0,2.5,0,5.4,0,8
			V71.1z"/>
		<path class="st2" d="M216.3,60.7c0-6.8,4-10.7,10.2-10.7c5.4,0,8.7,2.9,9.3,8l-4.7,0.9c-0.5-3-1.9-4.6-4.7-4.6
			c-3.6,0-5.2,2.8-5.2,6.4c0,4.1,1.5,6.6,5.1,6.6c3,0,4.3-1.6,4.9-4.7l4.7,0.8c-0.6,5.2-4,8.1-9.5,8.1
			C219.9,71.5,216.3,67.5,216.3,60.7z"/>
		<path class="st2" d="M237.6,60.7c0-6.6,4-10.7,10.4-10.7c6.5,0,10.4,4.1,10.4,10.7c0,3.9-1.3,6.9-3.6,8.8l3,4.4v0.4h-5.2l-1.8-3
			c-0.9,0.2-1.8,0.3-2.8,0.3C241.4,71.5,237.6,67.4,237.6,60.7z M253.5,60.7c0-3.8-1.6-6.4-5.5-6.4c-3.8,0-5.5,2.5-5.5,6.4
			c0,4.1,1.6,6.6,5.5,6.6C251.9,67.3,253.5,64.7,253.5,60.7z"/>
		<path class="st2" d="M274.4,62.7V50.5h5v12.6c0,5.4-3.2,8.4-9.1,8.4c-5.9,0-9.1-3-9.1-8.4V50.5h4.9v12.2c0,2.7,0.9,4.5,4.2,4.5
			C273.5,67.1,274.4,65.5,274.4,62.7z"/>
		<path class="st2" d="M282.8,50.5h15.6v4.3h-10.6v4h9.8v3.8h-9.8v4.2h10.6v4.3h-15.6V50.5z"/>
		<path class="st2" d="M301.6,50.5h15.6v4.3h-10.6v4h9.8v3.8h-9.8v4.2h10.6v4.3h-15.6V50.5z"/>
		<path class="st2" d="M328.4,62.9c-1-2-2.4-5.4-3.3-8.1l-0.5,0.1c0.2,3.1,0.4,7.4,0.4,9.9v6.2h-4.6V50.5h7l3.6,6.9
			c1.3,2.5,2.7,6.1,3.5,8.6l0.5-0.1c-0.2-3-0.4-6.6-0.4-9v-6.4h4.6v20.6h-6.6L328.4,62.9z"/>
	</g>
</g>
</svg>
